[hls @ 000002989f814f80] Opening 'https://tv.vodu.me:1995/bein2/kuwaitsport/tracks-v1a1/2025/08/04/19/56/15-05760.ts' for reading
[hls @ 000002989f814f80] Opening 'https://tv.vodu.me:1995/bein2/kuwaitsport/tracks-v1a1/2025/08/04/19/56/21-05759.ts' for reading
Input #0, hls, from 'https://tv.vodu.me:1995/bein2/kuwaitsport/tracks-v1a1/mono.m3u8':
  Duration: N/A, start: 81844.513878, bitrate: N/A
  Program 0 
    Metadata:
      variant_bitrate : 0
  Stream #0:0: Video: h264 (High) ([27][0][0][0] / 0x001B), yuv420p, 1920x1080 [SAR 1:1 DAR 16:9], 25 fps, 25 tbr, 90k tbn, start 81844.537178
    Metadata:
      variant_bitrate : 0
  Stream #0:1: Audio: aac (LC) ([15][0][0][0] / 0x000F), 48000 Hz, stereo, fltp, start 81844.513878
    Metadata:
      variant_bitrate : 0
Stream mapping:
  Stream #0:0 -> #0:0 (copy)
  Stream #0:1 -> #0:1 (copy)
Output #0, hls, to 'live\channel_8\stream.m3u8':
  Metadata:
    encoder         : Lavf62.1.103
  Stream #0:0: Video: h264 (High) ([27][0][0][0] / 0x001B), yuv420p, 1920x1080 [SAR 1:1 DAR 16:9], q=2-31, 25 fps, 25 tbr, 90k tbn
    Metadata:
      variant_bitrate : 0
  Stream #0:1: Audio: aac (LC) ([15][0][0][0] / 0x000F), 48000 Hz, stereo, fltp
    Metadata:
      variant_bitrate : 0
Press [q] to stop, [?] for help
[vist#0:0/h264 @ 00000298a204ee00] Resumed reading at pts 0.000 with rate 1.050 after a lag of 0.500s
frame=   13 fps=0.0 q=-1.0 size=N/A time=00:00:00.50 bitrate=N/A speed=0.998x elapsed=0:00:00.50    frame=   27 fps= 26 q=-1.0 size=N/A time=00:00:01.06 bitrate=N/A speed=1.04x elapsed=0:00:01.01    frame=   40 fps= 26 q=-1.0 size=N/A time=00:00:01.58 bitrate=N/A speed=1.03x elapsed=0:00:01.53    frame=   54 fps= 26 q=-1.0 size=N/A time=00:00:02.14 bitrate=N/A speed=1.04x elapsed=0:00:02.05    frame=   67 fps= 26 q=-1.0 size=N/A time=00:00:02.66 bitrate=N/A speed=1.04x elapsed=0:00:02.56    frame=   81 fps= 26 q=-1.0 size=N/A time=00:00:03.18 bitrate=N/A speed=1.03x elapsed=0:00:03.08    frame=   95 fps= 26 q=-1.0 size=N/A time=00:00:03.74 bitrate=N/A speed=1.04x elapsed=0:00:03.59    frame=  108 fps= 26 q=-1.0 size=N/A time=00:00:04.30 bitrate=N/A speed=1.05x elapsed=0:00:04.11    [hls @ 00000298a1615140] Opening 'live\channel_8\stream0.ts' for writing
[hls @ 00000298a1615140] Opening 'live\channel_8\stream.m3u8.tmp' for writing
frame=  122 fps= 26 q=-1.0 size=N/A time=00:00:04.86 bitrate=N/A speed=1.05x elapsed=0:00:04.63    frame=  135 fps= 26 q=-1.0 size=N/A time=00:00:05.38 bitrate=N/A speed=1.05x elapsed=0:00:05.14    [https @ 000002989f8da200] Opening 'https://tv.vodu.me:1995/bein2/kuwaitsport/tracks-v1a1/2025/08/04/19/56/27-05760.ts' for reading
frame=  148 fps= 26 q=-1.0 size=N/A time=00:00:05.90 bitrate=N/A speed=1.04x elapsed=0:00:05.65    frame=  162 fps= 26 q=-1.0 size=N/A time=00:00:06.46 bitrate=N/A speed=1.05x elapsed=0:00:06.17    frame=  175 fps= 26 q=-1.0 size=N/A time=00:00:06.98 bitrate=N/A speed=1.04x elapsed=0:00:06.69    frame=  189 fps= 26 q=-1.0 size=N/A time=00:00:07.54 bitrate=N/A speed=1.05x elapsed=0:00:07.20    frame=  203 fps= 26 q=-1.0 size=N/A time=00:00:08.10 bitrate=N/A speed=1.05x elapsed=0:00:07.72    frame=  216 fps= 26 q=-1.0 size=N/A time=00:00:08.62 bitrate=N/A speed=1.05x elapsed=0:00:08.23    [hls @ 00000298a1615140] Opening 'live\channel_8\stream1.ts' for writing
[hls @ 00000298a1615140] Opening 'live\channel_8\stream.m3u8.tmp' for writing
frame=  230 fps= 26 q=-1.0 size=N/A time=00:00:09.18 bitrate=N/A speed=1.05x elapsed=0:00:08.75    frame=  244 fps= 26 q=-1.0 size=N/A time=00:00:09.70 bitrate=N/A speed=1.05x elapsed=0:00:09.26    frame=  257 fps= 26 q=-1.0 size=N/A time=00:00:10.26 bitrate=N/A speed=1.05x elapsed=0:00:09.78    frame=  270 fps= 26 q=-1.0 size=N/A time=00:00:10.78 bitrate=N/A speed=1.05x elapsed=0:00:10.30    frame=  283 fps= 26 q=-1.0 size=N/A time=00:00:11.30 bitrate=N/A speed=1.04x elapsed=0:00:10.81    [https @ 00000298a1676d40] Opening 'https://tv.vodu.me:1995/bein2/kuwaitsport/tracks-v1a1/2025/08/04/19/56/32-05760.ts' for reading
frame=  296 fps= 26 q=-1.0 size=N/A time=00:00:11.78 bitrate=N/A speed=1.04x elapsed=0:00:11.33    frame=  309 fps= 26 q=-1.0 size=N/A time=00:00:12.34 bitrate=N/A speed=1.04x elapsed=0:00:11.84    frame=  322 fps= 26 q=-1.0 size=N/A time=00:00:12.86 bitrate=N/A speed=1.04x elapsed=0:00:12.36    [hls @ 00000298a1615140] Opening 'live\channel_8\stream2.ts' for writing
[hls @ 00000298a1615140] Opening 'live\channel_8\stream.m3u8.tmp' for writing
frame=  334 fps= 26 q=-1.0 size=N/A time=00:00:13.34 bitrate=N/A speed=1.04x elapsed=0:00:12.87    frame=  348 fps= 26 q=-1.0 size=N/A time=00:00:13.86 bitrate=N/A speed=1.03x elapsed=0:00:13.39    frame=  360 fps= 26 q=-1.0 size=N/A time=00:00:14.38 bitrate=N/A speed=1.03x elapsed=0:00:13.91    frame=  373 fps= 26 q=-1.0 size=N/A time=00:00:14.90 bitrate=N/A speed=1.03x elapsed=0:00:14.42    frame=  386 fps= 26 q=-1.0 size=N/A time=00:00:15.42 bitrate=N/A speed=1.03x elapsed=0:00:14.94    frame=  399 fps= 26 q=-1.0 size=N/A time=00:00:15.94 bitrate=N/A speed=1.03x elapsed=0:00:15.45    frame=  412 fps= 26 q=-1.0 size=N/A time=00:00:16.46 bitrate=N/A speed=1.03x elapsed=0:00:15.97    frame=  425 fps= 26 q=-1.0 size=N/A time=00:00:16.94 bitrate=N/A speed=1.03x elapsed=0:00:16.48    [https @ 000002989f8da200] Opening 'https://tv.vodu.me:1995/bein2/kuwaitsport/tracks-v1a1/2025/08/04/19/56/38-05760.ts' for reading
[hls @ 00000298a1615140] Opening 'live\channel_8\stream3.ts' for writing
[hls @ 00000298a1615140] Opening 'live\channel_8\stream.m3u8.tmp' for writing
frame=  437 fps= 26 q=-1.0 size=N/A time=00:00:17.46 bitrate=N/A speed=1.03x elapsed=0:00:17.00    frame=  450 fps= 26 q=-1.0 size=N/A time=00:00:17.98 bitrate=N/A speed=1.03x elapsed=0:00:17.51    frame=  463 fps= 26 q=-1.0 size=N/A time=00:00:18.50 bitrate=N/A speed=1.03x elapsed=0:00:18.03    frame=  476 fps= 26 q=-1.0 size=N/A time=00:00:19.02 bitrate=N/A speed=1.03x elapsed=0:00:18.55    frame=  489 fps= 26 q=-1.0 size=N/A time=00:00:19.54 bitrate=N/A speed=1.02x elapsed=0:00:19.06    frame=  502 fps= 26 q=-1.0 size=N/A time=00:00:20.06 bitrate=N/A speed=1.02x elapsed=0:00:19.58    [hls @ 00000298a1615140] Opening 'live\channel_8\stream4.ts' for writing
[hls @ 00000298a1615140] Opening 'live\channel_8\stream.m3u8.tmp' for writing
frame=  515 fps= 26 q=-1.0 size=N/A time=00:00:20.58 bitrate=N/A speed=1.02x elapsed=0:00:20.09    frame=  528 fps= 26 q=-1.0 size=N/A time=00:00:21.06 bitrate=N/A speed=1.02x elapsed=0:00:20.61    frame=  541 fps= 26 q=-1.0 size=N/A time=00:00:21.62 bitrate=N/A speed=1.02x elapsed=0:00:21.12    frame=  554 fps= 26 q=-1.0 size=N/A time=00:00:22.14 bitrate=N/A speed=1.02x elapsed=0:00:21.64    frame=  566 fps= 26 q=-1.0 size=N/A time=00:00:22.62 bitrate=N/A speed=1.02x elapsed=0:00:22.16    [https @ 00000298a1d0c580] Opening 'https://tv.vodu.me:1995/bein2/kuwaitsport/tracks-v1a1/mono.m3u8' for reading
[https @ 00000298a1676d40] Opening 'https://tv.vodu.me:1995/bein2/kuwaitsport/tracks-v1a1/2025/08/04/19/56/44-05760.ts' for reading
frame=  580 fps= 26 q=-1.0 size=N/A time=00:00:23.14 bitrate=N/A speed=1.02x elapsed=0:00:22.67    frame=  592 fps= 26 q=-1.0 size=N/A time=00:00:23.66 bitrate=N/A speed=1.02x elapsed=0:00:23.19    frame=  605 fps= 26 q=-1.0 size=N/A time=00:00:24.18 bitrate=N/A speed=1.02x elapsed=0:00:23.70    [hls @ 00000298a1615140] Opening 'live\channel_8\stream5.ts' for writing
[hls @ 00000298a1615140] Opening 'live\channel_8\stream.m3u8.tmp' for writing
frame=  618 fps= 26 q=-1.0 size=N/A time=00:00:24.70 bitrate=N/A speed=1.02x elapsed=0:00:24.22    frame=  631 fps= 26 q=-1.0 size=N/A time=00:00:25.22 bitrate=N/A speed=1.02x elapsed=0:00:24.73    frame=  644 fps= 26 q=-1.0 size=N/A time=00:00:25.74 bitrate=N/A speed=1.02x elapsed=0:00:25.25    frame=  657 fps= 25 q=-1.0 size=N/A time=00:00:26.22 bitrate=N/A speed=1.02x elapsed=0:00:25.76    frame=  669 fps= 25 q=-1.0 size=N/A time=00:00:26.74 bitrate=N/A speed=1.02x elapsed=0:00:26.28    frame=  683 fps= 25 q=-1.0 size=N/A time=00:00:27.30 bitrate=N/A speed=1.02x elapsed=0:00:26.80    frame=  695 fps= 25 q=-1.0 size=N/A time=00:00:27.78 bitrate=N/A speed=1.02x elapsed=0:00:27.31    frame=  709 fps= 25 q=-1.0 size=N/A time=00:00:28.30 bitrate=N/A speed=1.02x elapsed=0:00:27.83    [https @ 00000298a1d0c580] Opening 'https://tv.vodu.me:1995/bein2/kuwaitsport/tracks-v1a1/mono.m3u8' for reading
[https @ 000002989f8da200] Opening 'https://tv.vodu.me:1995/bein2/kuwaitsport/tracks-v1a1/2025/08/04/19/56/50-05760.ts' for reading
[hls @ 00000298a1615140] Opening 'live\channel_8\stream6.ts' for writing
[hls @ 00000298a1615140] Opening 'live\channel_8\stream.m3u8.tmp' for writing
frame=  721 fps= 25 q=-1.0 size=N/A time=00:00:28.82 bitrate=N/A speed=1.02x elapsed=0:00:28.34    frame=  734 fps= 25 q=-1.0 size=N/A time=00:00:29.34 bitrate=N/A speed=1.02x elapsed=0:00:28.86    frame=  747 fps= 25 q=-1.0 size=N/A time=00:00:29.86 bitrate=N/A speed=1.02x elapsed=0:00:29.37    frame=  760 fps= 25 q=-1.0 size=N/A time=00:00:30.38 bitrate=N/A speed=1.02x elapsed=0:00:29.89    frame=  773 fps= 25 q=-1.0 size=N/A time=00:00:30.90 bitrate=N/A speed=1.02x elapsed=0:00:30.41    frame=  786 fps= 25 q=-1.0 size=N/A time=00:00:31.42 bitrate=N/A speed=1.02x elapsed=0:00:30.92    frame=  798 fps= 25 q=-1.0 size=N/A time=00:00:31.90 bitrate=N/A speed=1.01x elapsed=0:00:31.44    frame=  812 fps= 25 q=-1.0 size=N/A time=00:00:32.42 bitrate=N/A speed=1.01x elapsed=0:00:31.95    frame=  824 fps= 25 q=-1.0 size=N/A time=00:00:32.94 bitrate=N/A speed=1.01x elapsed=0:00:32.47    [hls @ 00000298a1615140] Opening 'live\channel_8\stream7.ts' for writing
[hls @ 00000298a1615140] Opening 'live\channel_8\stream.m3u8.tmp' for writing
frame=  837 fps= 25 q=-1.0 size=N/A time=00:00:33.46 bitrate=N/A speed=1.01x elapsed=0:00:32.98    frame=  850 fps= 25 q=-1.0 size=N/A time=00:00:33.98 bitrate=N/A speed=1.01x elapsed=0:00:33.50    frame=  863 fps= 25 q=-1.0 size=N/A time=00:00:34.50 bitrate=N/A speed=1.01x elapsed=0:00:34.01    [https @ 00000298a1d0c580] Opening 'https://tv.vodu.me:1995/bein2/kuwaitsport/tracks-v1a1/mono.m3u8' for reading
[https @ 00000298a1676d40] Opening 'https://tv.vodu.me:1995/bein2/kuwaitsport/tracks-v1a1/2025/08/04/19/56/55-05760.ts' for reading
frame=  876 fps= 25 q=-1.0 size=N/A time=00:00:35.02 bitrate=N/A speed=1.01x elapsed=0:00:34.53    frame=  888 fps= 25 q=-1.0 size=N/A time=00:00:35.50 bitrate=N/A speed=1.01x elapsed=0:00:35.05    frame=  901 fps= 25 q=-1.0 size=N/A time=00:00:36.02 bitrate=N/A speed=1.01x elapsed=0:00:35.56    frame=  915 fps= 25 q=-1.0 size=N/A time=00:00:36.58 bitrate=N/A speed=1.01x elapsed=0:00:36.08    frame=  928 fps= 25 q=-1.0 size=N/A time=00:00:37.06 bitrate=N/A speed=1.01x elapsed=0:00:36.59    [hls @ 00000298a1615140] Opening 'live\channel_8\stream8.ts' for writing
[hls @ 00000298a1615140] Opening 'live\channel_8\stream.m3u8.tmp' for writing
frame=  940 fps= 25 q=-1.0 size=N/A time=00:00:37.58 bitrate=N/A speed=1.01x elapsed=0:00:37.11    frame=  954 fps= 25 q=-1.0 size=N/A time=00:00:38.10 bitrate=N/A speed=1.01x elapsed=0:00:37.62    frame=  966 fps= 25 q=-1.0 size=N/A time=00:00:38.62 bitrate=N/A speed=1.01x elapsed=0:00:38.14    frame=  979 fps= 25 q=-1.0 size=N/A time=00:00:39.14 bitrate=N/A speed=1.01x elapsed=0:00:38.66    frame=  992 fps= 25 q=-1.0 size=N/A time=00:00:39.66 bitrate=N/A speed=1.01x elapsed=0:00:39.17    frame= 1005 fps= 25 q=-1.0 size=N/A time=00:00:40.18 bitrate=N/A speed=1.01x elapsed=0:00:39.69    [https @ 000002989f8da200] Opening 'https://tv.vodu.me:1995/bein2/kuwaitsport/tracks-v1a1/2025/08/04/19/57/01-05760.ts' for reading
[hls @ 00000298a1615140] Opening 'live\channel_8\stream9.ts' for writing
[hls @ 00000298a1615140] Opening 'live\channel_8\stream.m3u8.tmp' for writing
frame= 1018 fps= 25 q=-1.0 size=N/A time=00:00:40.70 bitrate=N/A speed=1.01x elapsed=0:00:40.20    frame= 1031 fps= 25 q=-1.0 size=N/A time=00:00:41.18 bitrate=N/A speed=1.01x elapsed=0:00:40.72    frame= 1043 fps= 25 q=-1.0 size=N/A time=00:00:41.70 bitrate=N/A speed=1.01x elapsed=0:00:41.23    frame= 1056 fps= 25 q=-1.0 size=N/A time=00:00:42.22 bitrate=N/A speed=1.01x elapsed=0:00:41.75    frame= 1069 fps= 25 q=-1.0 size=N/A time=00:00:42.74 bitrate=N/A speed=1.01x elapsed=0:00:42.27    frame= 1082 fps= 25 q=-1.0 size=N/A time=00:00:43.26 bitrate=N/A speed=1.01x elapsed=0:00:42.78    frame= 1095 fps= 25 q=-1.0 size=N/A time=00:00:43.78 bitrate=N/A speed=1.01x elapsed=0:00:43.30    frame= 1108 fps= 25 q=-1.0 size=N/A time=00:00:44.30 bitrate=N/A speed=1.01x elapsed=0:00:43.81    [hls @ 00000298a1615140] Opening 'live\channel_8\stream10.ts' for writing
[hls @ 00000298a1615140] Opening 'live\channel_8\stream.m3u8.tmp' for writing
frame= 1121 fps= 25 q=-1.0 size=N/A time=00:00:44.78 bitrate=N/A speed=1.01x elapsed=0:00:44.33    frame= 1134 fps= 25 q=-1.0 size=N/A time=00:00:45.30 bitrate=N/A speed=1.01x elapsed=0:00:44.84    frame= 1147 fps= 25 q=-1.0 size=N/A time=00:00:45.86 bitrate=N/A speed=1.01x elapsed=0:00:45.36    [https @ 00000298a1d0c580] Opening 'https://tv.vodu.me:1995/bein2/kuwaitsport/tracks-v1a1/mono.m3u8' for reading
[https @ 00000298a1676d40] Opening 'https://tv.vodu.me:1995/bein2/kuwaitsport/tracks-v1a1/2025/08/04/19/57/07-05760.ts' for reading
frame= 1159 fps= 25 q=-1.0 size=N/A time=00:00:46.34 bitrate=N/A speed=1.01x elapsed=0:00:45.87    frame= 1172 fps= 25 q=-1.0 size=N/A time=00:00:46.86 bitrate=N/A speed=1.01x elapsed=0:00:46.39    frame= 1186 fps= 25 q=-1.0 size=N/A time=00:00:47.38 bitrate=N/A speed=1.01x elapsed=0:00:46.91    frame= 1198 fps= 25 q=-1.0 size=N/A time=00:00:47.90 bitrate=N/A speed=1.01x elapsed=0:00:47.42    frame= 1211 fps= 25 q=-1.0 size=N/A time=00:00:48.42 bitrate=N/A speed=1.01x elapsed=0:00:47.94    frame= 1224 fps= 25 q=-1.0 size=N/A time=00:00:48.94 bitrate=N/A speed=1.01x elapsed=0:00:48.45    [hls @ 00000298a1615140] Opening 'live\channel_8\stream11.ts' for writing
[hls @ 00000298a1615140] Opening 'live\channel_8\stream.m3u8.tmp' for writing
frame= 1237 fps= 25 q=-1.0 size=N/A time=00:00:49.46 bitrate=N/A speed=1.01x elapsed=0:00:48.97    frame= 1250 fps= 25 q=-1.0 size=N/A time=00:00:49.98 bitrate=N/A speed=1.01x elapsed=0:00:49.48    frame= 1263 fps= 25 q=-1.0 size=N/A time=00:00:50.46 bitrate=N/A speed=1.01x elapsed=0:00:50.00    frame= 1276 fps= 25 q=-1.0 size=N/A time=00:00:50.98 bitrate=N/A speed=1.01x elapsed=0:00:50.52    frame= 1288 fps= 25 q=-1.0 size=N/A time=00:00:51.50 bitrate=N/A speed=1.01x elapsed=0:00:51.03    [https @ 00000298a1d0c580] Opening 'https://tv.vodu.me:1995/bein2/kuwaitsport/tracks-v1a1/mono.m3u8' for reading
[https @ 000002989f8da200] Opening 'https://tv.vodu.me:1995/bein2/kuwaitsport/tracks-v1a1/2025/08/04/19/57/13-05760.ts' for reading
frame= 1301 fps= 25 q=-1.0 size=N/A time=00:00:52.02 bitrate=N/A speed=1.01x elapsed=0:00:51.55    frame= 1315 fps= 25 q=-1.0 size=N/A time=00:00:52.54 bitrate=N/A speed=1.01x elapsed=0:00:52.06    frame= 1327 fps= 25 q=-1.0 size=N/A time=00:00:53.06 bitrate=N/A speed=1.01x elapsed=0:00:52.58    [hls @ 00000298a1615140] Opening 'live\channel_8\stream12.ts' for writing
[hls @ 00000298a1615140] Opening 'live\channel_8\stream.m3u8.tmp' for writing
frame= 1340 fps= 25 q=-1.0 size=N/A time=00:00:53.58 bitrate=N/A speed=1.01x elapsed=0:00:53.09    frame= 1352 fps= 25 q=-1.0 size=N/A time=00:00:54.06 bitrate=N/A speed=1.01x elapsed=0:00:53.61    frame= 1366 fps= 25 q=-1.0 size=N/A time=00:00:54.62 bitrate=N/A speed=1.01x elapsed=0:00:54.12    frame= 1379 fps= 25 q=-1.0 size=N/A time=00:00:55.14 bitrate=N/A speed=1.01x elapsed=0:00:54.64    frame= 1392 fps= 25 q=-1.0 size=N/A time=00:00:55.62 bitrate=N/A speed=1.01x elapsed=0:00:55.16    frame= 1404 fps= 25 q=-1.0 size=N/A time=00:00:56.14 bitrate=N/A speed=1.01x elapsed=0:00:55.67    [hls @ 00000298a1615140] Opening 'live\channel_8\stream13.ts' for writing
[hls @ 00000298a1615140] Opening 'live\channel_8\stream.m3u8.tmp' for writing
frame= 1418 fps= 25 q=-1.0 size=N/A time=00:00:56.66 bitrate=N/A speed=1.01x elapsed=0:00:56.19    frame= 1430 fps= 25 q=-1.0 size=N/A time=00:00:57.18 bitrate=N/A speed=1.01x elapsed=0:00:56.70    [https @ 00000298a1676d40] Opening 'https://tv.vodu.me:1995/bein2/kuwaitsport/tracks-v1a1/2025/08/04/19/57/18-05760.ts' for reading
frame= 1443 fps= 25 q=-1.0 size=N/A time=00:00:57.70 bitrate=N/A speed=1.01x elapsed=0:00:57.22    frame= 1455 fps= 25 q=-1.0 size=N/A time=00:00:58.18 bitrate=N/A speed=1.01x elapsed=0:00:57.73    frame= 1469 fps= 25 q=-1.0 size=N/A time=00:00:58.74 bitrate=N/A speed=1.01x elapsed=0:00:58.25    frame= 1482 fps= 25 q=-1.0 size=N/A time=00:00:59.26 bitrate=N/A speed=1.01x elapsed=0:00:58.77    frame= 1495 fps= 25 q=-1.0 size=N/A time=00:00:59.74 bitrate=N/A speed=1.01x elapsed=0:00:59.28    frame= 1508 fps= 25 q=-1.0 size=N/A time=00:01:00.26 bitrate=N/A speed=1.01x elapsed=0:00:59.80    [hls @ 00000298a1615140] Opening 'live\channel_8\stream14.ts' for writing
[hls @ 00000298a1615140] Opening 'live\channel_8\stream.m3u8.tmp' for writing
frame= 1520 fps= 25 q=-1.0 size=N/A time=00:01:00.78 bitrate=N/A speed=1.01x elapsed=0:01:00.31    frame= 1533 fps= 25 q=-1.0 size=N/A time=00:01:01.30 bitrate=N/A speed=1.01x elapsed=0:01:00.83    frame= 1546 fps= 25 q=-1.0 size=N/A time=00:01:01.82 bitrate=N/A speed=1.01x elapsed=0:01:01.34    frame= 1559 fps= 25 q=-1.0 size=N/A time=00:01:02.34 bitrate=N/A speed=1.01x elapsed=0:01:01.86    frame= 1572 fps= 25 q=-1.0 size=N/A time=00:01:02.86 bitrate=N/A speed=1.01x elapsed=0:01:02.37    [https @ 00000298a1d0c580] Opening 'https://tv.vodu.me:1995/bein2/kuwaitsport/tracks-v1a1/mono.m3u8' for reading
[https @ 000002989f8da200] Opening 'https://tv.vodu.me:1995/bein2/kuwaitsport/tracks-v1a1/2025/08/04/19/57/24-05760.ts' for reading
frame= 1584 fps= 25 q=-1.0 size=N/A time=00:01:03.34 bitrate=N/A speed=1.01x elapsed=0:01:02.89    frame= 1598 fps= 25 q=-1.0 size=N/A time=00:01:03.90 bitrate=N/A speed=1.01x elapsed=0:01:03.41    frame= 1611 fps= 25 q=-1.0 size=N/A time=00:01:04.42 bitrate=N/A speed=1.01x elapsed=0:01:03.92    [hls @ 00000298a1615140] Opening 'live\channel_8\stream15.ts' for writing
[hls @ 00000298a1615140] Opening 'live\channel_8\stream.m3u8.tmp' for writing
frame= 1624 fps= 25 q=-1.0 size=N/A time=00:01:04.90 bitrate=N/A speed=1.01x elapsed=0:01:04.44    frame= 1636 fps= 25 q=-1.0 size=N/A time=00:01:05.42 bitrate=N/A speed=1.01x elapsed=0:01:04.95    frame= 1649 fps= 25 q=-1.0 size=N/A time=00:01:05.94 bitrate=N/A speed=1.01x elapsed=0:01:05.47    frame= 1662 fps= 25 q=-1.0 size=N/A time=00:01:06.46 bitrate=N/A speed=1.01x elapsed=0:01:05.98    frame= 1675 fps= 25 q=-1.0 size=N/A time=00:01:06.98 bitrate=N/A speed=1.01x elapsed=0:01:06.50    frame= 1688 fps= 25 q=-1.0 size=N/A time=00:01:07.50 bitrate=N/A speed=1.01x elapsed=0:01:07.01    frame= 1701 fps= 25 q=-1.0 size=N/A time=00:01:08.02 bitrate=N/A speed=1.01x elapsed=0:01:07.53    frame= 1714 fps= 25 q=-1.0 size=N/A time=00:01:08.54 bitrate=N/A speed=1.01x elapsed=0:01:08.05    frame= 1726 fps= 25 q=-1.0 size=N/A time=00:01:09.02 bitrate=N/A speed=1.01x elapsed=0:01:08.56    [https @ 00000298a1d0c580] Opening 'https://tv.vodu.me:1995/bein2/kuwaitsport/tracks-v1a1/mono.m3u8' for reading
[https @ 00000298a1676d40] Opening 'https://tv.vodu.me:1995/bein2/kuwaitsport/tracks-v1a1/2025/08/04/19/57/30-05760.ts' for reading
[hls @ 00000298a1615140] Opening 'live\channel_8\stream16.ts' for writing
[hls @ 00000298a1615140] Opening 'live\channel_8\stream.m3u8.tmp' for writing
frame= 1740 fps= 25 q=-1.0 size=N/A time=00:01:09.54 bitrate=N/A speed=1.01x elapsed=0:01:09.08    frame= 1752 fps= 25 q=-1.0 size=N/A time=00:01:10.06 bitrate=N/A speed=1.01x elapsed=0:01:09.59    frame= 1765 fps= 25 q=-1.0 size=N/A time=00:01:10.58 bitrate=N/A speed=1.01x elapsed=0:01:10.11    frame= 1778 fps= 25 q=-1.0 size=N/A time=00:01:11.10 bitrate=N/A speed=1.01x elapsed=0:01:10.62    frame= 1791 fps= 25 q=-1.0 size=N/A time=00:01:11.62 bitrate=N/A speed=1.01x elapsed=0:01:11.14    frame= 1804 fps= 25 q=-1.0 size=N/A time=00:01:12.14 bitrate=N/A speed=1.01x elapsed=0:01:11.66    frame= 1816 fps= 25 q=-1.0 size=N/A time=00:01:12.62 bitrate=N/A speed=1.01x elapsed=0:01:12.17    frame= 1830 fps= 25 q=-1.0 size=N/A time=00:01:13.18 bitrate=N/A speed=1.01x elapsed=0:01:12.69    [hls @ 00000298a1615140] Opening 'live\channel_8\stream17.ts' for writing
[hls @ 00000298a1615140] Opening 'live\channel_8\stream.m3u8.tmp' for writing
frame= 1843 fps= 25 q=-1.0 size=N/A time=00:01:13.70 bitrate=N/A speed=1.01x elapsed=0:01:13.20    frame= 1855 fps= 25 q=-1.0 size=N/A time=00:01:14.18 bitrate=N/A speed=1.01x elapsed=0:01:13.72    frame= 1869 fps= 25 q=-1.0 size=N/A time=00:01:14.70 bitrate=N/A speed=1.01x elapsed=0:01:14.23    [https @ 000002989f8da200] Opening 'https://tv.vodu.me:1995/bein2/kuwaitsport/tracks-v1a1/2025/08/04/19/57/36-05760.ts' for reading
frame= 1881 fps= 25 q=-1.0 size=N/A time=00:01:15.22 bitrate=N/A speed=1.01x elapsed=0:01:14.75    frame= 1894 fps= 25 q=-1.0 size=N/A time=00:01:15.74 bitrate=N/A speed=1.01x elapsed=0:01:15.26    frame= 1907 fps= 25 q=-1.0 size=N/A time=00:01:16.26 bitrate=N/A speed=1.01x elapsed=0:01:15.78    [hls @ 00000298a1615140] Opening 'live\channel_8\stream18.ts' for writing
[hls @ 00000298a1615140] Opening 'live\channel_8\stream.m3u8.tmp' for writing
frame= 1920 fps= 25 q=-1.0 size=N/A time=00:01:16.78 bitrate=N/A speed=1.01x elapsed=0:01:16.30    frame= 1933 fps= 25 q=-1.0 size=N/A time=00:01:17.30 bitrate=N/A speed=1.01x elapsed=0:01:16.81    frame= 1946 fps= 25 q=-1.0 size=N/A time=00:01:17.82 bitrate=N/A speed=1.01x elapsed=0:01:17.33    frame= 1959 fps= 25 q=-1.0 size=N/A time=00:01:18.30 bitrate=N/A speed=1.01x elapsed=0:01:17.84    frame= 1972 fps= 25 q=-1.0 size=N/A time=00:01:18.86 bitrate=N/A speed=1.01x elapsed=0:01:18.36    frame= 1984 fps= 25 q=-1.0 size=N/A time=00:01:19.34 bitrate=N/A speed=1.01x elapsed=0:01:18.87    frame= 1997 fps= 25 q=-1.0 size=N/A time=00:01:19.86 bitrate=N/A speed=1.01x elapsed=0:01:19.39    frame= 2010 fps= 25 q=-1.0 size=N/A time=00:01:20.38 bitrate=N/A speed=1.01x elapsed=0:01:19.91    [https @ 00000298a1d0c580] Opening 'https://tv.vodu.me:1995/bein2/kuwaitsport/tracks-v1a1/mono.m3u8' for reading
[https @ 00000298a1676d40] Opening 'https://tv.vodu.me:1995/bein2/kuwaitsport/tracks-v1a1/2025/08/04/19/57/42-05760.ts' for reading
[hls @ 00000298a1615140] Opening 'live\channel_8\stream19.ts' for writing
[hls @ 00000298a1615140] Opening 'live\channel_8\stream.m3u8.tmp' for writing
frame= 2023 fps= 25 q=-1.0 size=N/A time=00:01:20.90 bitrate=N/A speed=1.01x elapsed=0:01:20.42    frame= 2036 fps= 25 q=-1.0 size=N/A time=00:01:21.42 bitrate=N/A speed=1.01x elapsed=0:01:20.94    frame= 2049 fps= 25 q=-1.0 size=N/A time=00:01:21.94 bitrate=N/A speed=1.01x elapsed=0:01:21.46    frame= 2062 fps= 25 q=-1.0 size=N/A time=00:01:22.46 bitrate=N/A speed=1.01x elapsed=0:01:21.96    frame= 2075 fps= 25 q=-1.0 size=N/A time=00:01:22.98 bitrate=N/A speed=1.01x elapsed=0:01:22.48    frame= 2087 fps= 25 q=-1.0 size=N/A time=00:01:23.46 bitrate=N/A speed=1.01x elapsed=0:01:23.00    frame= 2100 fps= 25 q=-1.0 size=N/A time=00:01:23.98 bitrate=N/A speed=1.01x elapsed=0:01:23.51    frame= 2113 fps= 25 q=-1.0 size=N/A time=00:01:24.50 bitrate=N/A speed=1.01x elapsed=0:01:24.03    [hls @ 00000298a1615140] Opening 'live\channel_8\stream20.ts' for writing
[hls @ 00000298a1615140] Opening 'live\channel_8\stream.m3u8.tmp' for writing
frame= 2126 fps= 25 q=-1.0 size=N/A time=00:01:25.02 bitrate=N/A speed=1.01x elapsed=0:01:24.54    frame= 2139 fps= 25 q=-1.0 size=N/A time=00:01:25.54 bitrate=N/A speed=1.01x elapsed=0:01:25.06    frame= 2152 fps= 25 q=-1.0 size=N/A time=00:01:26.06 bitrate=N/A speed=1.01x elapsed=0:01:25.57    [https @ 000002989f8da200] Opening 'https://tv.vodu.me:1995/bein2/kuwaitsport/tracks-v1a1/2025/08/04/19/57/47-05760.ts' for reading
frame= 2165 fps= 25 q=-1.0 size=N/A time=00:01:26.58 bitrate=N/A speed=1.01x elapsed=0:01:26.09    frame= 2178 fps= 25 q=-1.0 size=N/A time=00:01:27.10 bitrate=N/A speed=1.01x elapsed=0:01:26.60    frame= 2190 fps= 25 q=-1.0 size=N/A time=00:01:27.58 bitrate=N/A speed=1.01x elapsed=0:01:27.12    frame= 2204 fps= 25 q=-1.0 size=N/A time=00:01:28.14 bitrate=N/A speed=1.01x elapsed=0:01:27.64    frame= 2216 fps= 25 q=-1.0 size=N/A time=00:01:28.62 bitrate=N/A speed=1.01x elapsed=0:01:28.15    frame= 2229 fps= 25 q=-1.0 size=N/A time=00:01:29.14 bitrate=N/A speed=1.01x elapsed=0:01:28.67    [hls @ 00000298a1615140] Opening 'live\channel_8\stream21.ts' for writing
[hls @ 00000298a1615140] Opening 'live\channel_8\stream.m3u8.tmp' for writing
frame= 2243 fps= 25 q=-1.0 size=N/A time=00:01:29.70 bitrate=N/A speed=1.01x elapsed=0:01:29.18    frame= 2255 fps= 25 q=-1.0 size=N/A time=00:01:30.18 bitrate=N/A speed=1.01x elapsed=0:01:29.70    frame= 2267 fps= 25 q=-1.0 size=N/A time=00:01:30.66 bitrate=N/A speed=   1x elapsed=0:01:30.21    frame= 2281 fps= 25 q=-1.0 size=N/A time=00:01:31.22 bitrate=N/A speed=1.01x elapsed=0:01:30.73    frame= 2294 fps= 25 q=-1.0 size=N/A time=00:01:31.74 bitrate=N/A speed=1.01x elapsed=0:01:31.24    [https @ 00000298a1d0c580] Opening 'https://tv.vodu.me:1995/bein2/kuwaitsport/tracks-v1a1/mono.m3u8' for reading
[https @ 00000298a1676d40] Opening 'https://tv.vodu.me:1995/bein2/kuwaitsport/tracks-v1a1/2025/08/04/19/57/53-05760.ts' for reading
[hls @ 00000298a1615140] Opening 'live\channel_8\stream22.ts' for writing
[hls @ 00000298a1615140] Opening 'live\channel_8\stream.m3u8.tmp' for writing
frame= 2307 fps= 25 q=-1.0 size=N/A time=00:01:32.26 bitrate=N/A speed=1.01x elapsed=0:01:31.76    frame= 2319 fps= 25 q=-1.0 size=N/A time=00:01:32.74 bitrate=N/A speed=   1x elapsed=0:01:32.28    frame= 2332 fps= 25 q=-1.0 size=N/A time=00:01:33.26 bitrate=N/A speed=1.01x elapsed=0:01:32.79    frame= 2345 fps= 25 q=-1.0 size=N/A time=00:01:33.78 bitrate=N/A speed=1.01x elapsed=0:01:33.31    frame= 2358 fps= 25 q=-1.0 size=N/A time=00:01:34.30 bitrate=N/A speed=1.01x elapsed=0:01:33.82    frame= 2371 fps= 25 q=-1.0 size=N/A time=00:01:34.82 bitrate=N/A speed=1.01x elapsed=0:01:34.34    frame= 2384 fps= 25 q=-1.0 size=N/A time=00:01:35.34 bitrate=N/A speed=1.01x elapsed=0:01:34.86    frame= 2397 fps= 25 q=-1.0 size=N/A time=00:01:35.86 bitrate=N/A speed=1.01x elapsed=0:01:35.37    frame= 2410 fps= 25 q=-1.0 size=N/A time=00:01:36.38 bitrate=N/A speed=1.01x elapsed=0:01:35.88    [hls @ 00000298a1615140] Opening 'live\channel_8\stream23.ts' for writing
[hls @ 00000298a1615140] Opening 'live\channel_8\stream.m3u8.tmp' for writing
frame= 2422 fps= 25 q=-1.0 size=N/A time=00:01:36.86 bitrate=N/A speed=   1x elapsed=0:01:36.40    frame= 2436 fps= 25 q=-1.0 size=N/A time=00:01:37.42 bitrate=N/A speed=1.01x elapsed=0:01:36.92    [https @ 000002989f8da200] Opening 'https://tv.vodu.me:1995/bein2/kuwaitsport/tracks-v1a1/2025/08/04/19/57/59-05760.ts' for reading
[https @ 00000298a1d0c580] Opening 'https://tv.vodu.me:1995/bein2/kuwaitsport/tracks-v1a1/mono.m3u8' for reading
frame= 2448 fps= 25 q=-1.0 size=N/A time=00:01:37.90 bitrate=N/A speed=   1x elapsed=0:01:37.43    frame= 2462 fps= 25 q=-1.0 size=N/A time=00:01:38.42 bitrate=N/A speed=   1x elapsed=0:01:37.95    frame= 2475 fps= 25 q=-1.0 size=N/A time=00:01:38.94 bitrate=N/A speed=   1x elapsed=0:01:38.47    frame= 2487 fps= 25 q=-1.0 size=N/A time=00:01:39.46 bitrate=N/A speed=   1x elapsed=0:01:38.98    frame= 2500 fps= 25 q=-1.0 size=N/A time=00:01:39.98 bitrate=N/A speed=   1x elapsed=0:01:39.49    frame= 2513 fps= 25 q=-1.0 size=N/A time=00:01:40.50 bitrate=N/A speed=   1x elapsed=0:01:40.02    [hls @ 00000298a1615140] Opening 'live\channel_8\stream24.ts' for writing
[hls @ 00000298a1615140] Opening 'live\channel_8\stream.m3u8.tmp' for writing
frame= 2526 fps= 25 q=-1.0 size=N/A time=00:01:41.02 bitrate=N/A speed=   1x elapsed=0:01:40.53    frame= 2539 fps= 25 q=-1.0 size=N/A time=00:01:41.54 bitrate=N/A speed=   1x elapsed=0:01:41.05    frame= 2552 fps= 25 q=-1.0 size=N/A time=00:01:42.02 bitrate=N/A speed=   1x elapsed=0:01:41.56    frame= 2565 fps= 25 q=-1.0 size=N/A time=00:01:42.54 bitrate=N/A speed=   1x elapsed=0:01:42.08    frame= 2578 fps= 25 q=-1.0 size=N/A time=00:01:43.10 bitrate=N/A speed=   1x elapsed=0:01:42.59    frame= 2590 fps= 25 q=-1.0 size=N/A time=00:01:43.58 bitrate=N/A speed=   1x elapsed=0:01:43.11    [https @ 00000298a1676d40] Opening 'https://tv.vodu.me:1995/bein2/kuwaitsport/tracks-v1a1/2025/08/04/19/58/05-05760.ts' for reading
frame= 2604 fps= 25 q=-1.0 size=N/A time=00:01:44.10 bitrate=N/A speed=   1x elapsed=0:01:43.63    frame= 2616 fps= 25 q=-1.0 size=N/A time=00:01:44.62 bitrate=N/A speed=   1x elapsed=0:01:44.14    [hls @ 00000298a1615140] Opening 'live\channel_8\stream25.ts' for writing
[hls @ 00000298a1615140] Opening 'live\channel_8\stream.m3u8.tmp' for writing
frame= 2629 fps= 25 q=-1.0 size=N/A time=00:01:45.14 bitrate=N/A speed=   1x elapsed=0:01:44.66    frame= 2642 fps= 25 q=-1.0 size=N/A time=00:01:45.66 bitrate=N/A speed=   1x elapsed=0:01:45.17    frame= 2655 fps= 25 q=-1.0 size=N/A time=00:01:46.18 bitrate=N/A speed=   1x elapsed=0:01:45.69    frame= 2668 fps= 25 q=-1.0 size=N/A time=00:01:46.70 bitrate=N/A speed=   1x elapsed=0:01:46.20    frame= 2679 fps= 25 q=-1.0 size=N/A time=00:01:47.14 bitrate=N/A speed=   1x elapsed=0:01:46.72    frame= 2694 fps= 25 q=-1.0 size=N/A time=00:01:47.70 bitrate=N/A speed=   1x elapsed=0:01:47.23    frame= 2706 fps= 25 q=-1.0 size=N/A time=00:01:48.22 bitrate=N/A speed=   1x elapsed=0:01:47.75    frame= 2719 fps= 25 q=-1.0 size=N/A time=00:01:48.74 bitrate=N/A speed=   1x elapsed=0:01:48.27    frame= 2732 fps= 25 q=-1.0 size=N/A time=00:01:49.26 bitrate=N/A speed=   1x elapsed=0:01:48.78    [https @ 00000298a1d0c580] Opening 'https://tv.vodu.me:1995/bein2/kuwaitsport/tracks-v1a1/mono.m3u8' for reading
[https @ 000002989f8da200] Opening 'https://tv.vodu.me:1995/bein2/kuwaitsport/tracks-v1a1/2025/08/04/19/58/10-05760.ts' for reading
[hls @ 00000298a1615140] Opening 'live\channel_8\stream26.ts' for writing
[hls @ 00000298a1615140] Opening 'live\channel_8\stream.m3u8.tmp' for writing
frame= 2745 fps= 25 q=-1.0 size=N/A time=00:01:49.78 bitrate=N/A speed=   1x elapsed=0:01:49.30    frame= 2758 fps= 25 q=-1.0 size=N/A time=00:01:50.30 bitrate=N/A speed=   1x elapsed=0:01:49.81    frame= 2771 fps= 25 q=-1.0 size=N/A time=00:01:50.82 bitrate=N/A speed=   1x elapsed=0:01:50.33    frame= 2783 fps= 25 q=-1.0 size=N/A time=00:01:51.30 bitrate=N/A speed=   1x elapsed=0:01:50.84    frame= 2797 fps= 25 q=-1.0 size=N/A time=00:01:51.82 bitrate=N/A speed=   1x elapsed=0:01:51.36    [hls @ 00000298a1615140] Opening 'live\channel_8\stream27.ts' for writing
[hls @ 00000298a1615140] Opening 'live\channel_8\stream.m3u8.tmp' for writing
frame= 2810 fps= 25 q=-1.0 size=N/A time=00:01:52.38 bitrate=N/A speed=   1x elapsed=0:01:51.88    frame= 2822 fps= 25 q=-1.0 size=N/A time=00:01:52.86 bitrate=N/A speed=   1x elapsed=0:01:52.39    frame= 2836 fps= 25 q=-1.0 size=N/A time=00:01:53.38 bitrate=N/A speed=   1x elapsed=0:01:52.91    frame= 2848 fps= 25 q=-1.0 size=N/A time=00:01:53.90 bitrate=N/A speed=   1x elapsed=0:01:53.42    frame= 2861 fps= 25 q=-1.0 size=N/A time=00:01:54.42 bitrate=N/A speed=   1x elapsed=0:01:53.94    frame= 2874 fps= 25 q=-1.0 size=N/A time=00:01:54.94 bitrate=N/A speed=   1x elapsed=0:01:54.46    [https @ 00000298a1676d40] Opening 'https://tv.vodu.me:1995/bein2/kuwaitsport/tracks-v1a1/2025/08/04/19/58/16-05759.ts' for reading
frame= 2887 fps= 25 q=-1.0 size=N/A time=00:01:55.46 bitrate=N/A speed=   1x elapsed=0:01:54.97    frame= 2900 fps= 25 q=-1.0 size=N/A time=00:01:55.98 bitrate=N/A speed=   1x elapsed=0:01:55.48    frame= 2912 fps= 25 q=-1.0 size=N/A time=00:01:56.46 bitrate=N/A speed=   1x elapsed=0:01:55.99    [hls @ 00000298a1615140] Opening 'live\channel_8\stream28.ts' for writing
[hls @ 00000298a1615140] Opening 'live\channel_8\stream.m3u8.tmp' for writing
frame= 2926 fps= 25 q=-1.0 size=N/A time=00:01:56.98 bitrate=N/A speed=   1x elapsed=0:01:56.52    frame= 2939 fps= 25 q=-1.0 size=N/A time=00:01:57.54 bitrate=N/A speed=   1x elapsed=0:01:57.04    frame= 2951 fps= 25 q=-1.0 size=N/A time=00:01:58.02 bitrate=N/A speed=   1x elapsed=0:01:57.54    frame= 2964 fps= 25 q=-1.0 size=N/A time=00:01:58.54 bitrate=N/A speed=   1x elapsed=0:01:58.06    frame= 2977 fps= 25 q=-1.0 size=N/A time=00:01:59.06 bitrate=N/A speed=   1x elapsed=0:01:58.58    frame= 2990 fps= 25 q=-1.0 size=N/A time=00:01:59.58 bitrate=N/A speed=   1x elapsed=0:01:59.09    frame= 3003 fps= 25 q=-1.0 size=N/A time=00:02:00.10 bitrate=N/A speed=   1x elapsed=0:01:59.61    frame= 3015 fps= 25 q=-1.0 size=N/A time=00:02:00.58 bitrate=N/A speed=   1x elapsed=0:02:00.12    [https @ 00000298a1d0c580] Opening 'https://tv.vodu.me:1995/bein2/kuwaitsport/tracks-v1a1/mono.m3u8' for reading
[https @ 000002989f8da200] Opening 'https://tv.vodu.me:1995/bein2/kuwaitsport/tracks-v1a1/2025/08/04/19/58/22-05760.ts' for reading
[hls @ 00000298a1615140] Opening 'live\channel_8\stream29.ts' for writing
[hls @ 00000298a1615140] Opening 'live\channel_8\stream.m3u8.tmp' for writing
frame= 3028 fps= 25 q=-1.0 size=N/A time=00:02:01.10 bitrate=N/A speed=   1x elapsed=0:02:00.64    frame= 3042 fps= 25 q=-1.0 size=N/A time=00:02:01.66 bitrate=N/A speed=   1x elapsed=0:02:01.16    frame= 3054 fps= 25 q=-1.0 size=N/A time=00:02:02.14 bitrate=N/A speed=   1x elapsed=0:02:01.67    frame= 3068 fps= 25 q=-1.0 size=N/A time=00:02:02.66 bitrate=N/A speed=   1x elapsed=0:02:02.19    frame= 3080 fps= 25 q=-1.0 size=N/A time=00:02:03.18 bitrate=N/A speed=   1x elapsed=0:02:02.70    frame= 3093 fps= 25 q=-1.0 size=N/A time=00:02:03.70 bitrate=N/A speed=   1x elapsed=0:02:03.22    frame= 3106 fps= 25 q=-1.0 size=N/A time=00:02:04.22 bitrate=N/A speed=   1x elapsed=0:02:03.73    frame= 3119 fps= 25 q=-1.0 size=N/A time=00:02:04.74 bitrate=N/A speed=   1x elapsed=0:02:04.25    frame= 3132 fps= 25 q=-1.0 size=N/A time=00:02:05.26 bitrate=N/A speed=   1x elapsed=0:02:04.77    [hls @ 00000298a1615140] Opening 'live\channel_8\stream30.ts' for writing
[hls @ 00000298a1615140] Opening 'live\channel_8\stream.m3u8.tmp' for writing
frame= 3145 fps= 25 q=-1.0 size=N/A time=00:02:05.74 bitrate=N/A speed=   1x elapsed=0:02:05.28    frame= 3157 fps= 25 q=-1.0 size=N/A time=00:02:06.26 bitrate=N/A speed=   1x elapsed=0:02:05.79    [https @ 00000298a1d0c580] Opening 'https://tv.vodu.me:1995/bein2/kuwaitsport/tracks-v1a1/mono.m3u8' for reading
[https @ 00000298a1676d40] Opening 'https://tv.vodu.me:1995/bein2/kuwaitsport/tracks-v1a1/2025/08/04/19/58/28-05759.ts' for reading
frame= 3171 fps= 25 q=-1.0 size=N/A time=00:02:06.82 bitrate=N/A speed=   1x elapsed=0:02:06.32    frame= 3183 fps= 25 q=-1.0 size=N/A time=00:02:07.30 bitrate=N/A speed=   1x elapsed=0:02:06.83    frame= 3196 fps= 25 q=-1.0 size=N/A time=00:02:07.82 bitrate=N/A speed=   1x elapsed=0:02:07.34    [hls @ 00000298a1615140] Opening 'live\channel_8\stream31.ts' for writing
[hls @ 00000298a1615140] Opening 'live\channel_8\stream.m3u8.tmp' for writing
frame= 3209 fps= 25 q=-1.0 size=N/A time=00:02:08.34 bitrate=N/A speed=   1x elapsed=0:02:07.86    frame= 3222 fps= 25 q=-1.0 size=N/A time=00:02:08.86 bitrate=N/A speed=   1x elapsed=0:02:08.37    frame= 3235 fps= 25 q=-1.0 size=N/A time=00:02:09.38 bitrate=N/A speed=   1x elapsed=0:02:08.89    frame= 3247 fps= 25 q=-1.0 size=N/A time=00:02:09.86 bitrate=N/A speed=   1x elapsed=0:02:09.40    frame= 3260 fps= 25 q=-1.0 size=N/A time=00:02:10.38 bitrate=N/A speed=   1x elapsed=0:02:09.92    frame= 3274 fps= 25 q=-1.0 size=N/A time=00:02:10.94 bitrate=N/A speed=   1x elapsed=0:02:10.44    frame= 3286 fps= 25 q=-1.0 size=N/A time=00:02:11.42 bitrate=N/A speed=   1x elapsed=0:02:10.95    frame= 3300 fps= 25 q=-1.0 size=N/A time=00:02:11.94 bitrate=N/A speed=   1x elapsed=0:02:11.47    [https @ 000002989f8da200] Opening 'https://tv.vodu.me:1995/bein2/kuwaitsport/tracks-v1a1/2025/08/04/19/58/33-05760.ts' for reading
[https @ 00000298a1d0c580] Opening 'https://tv.vodu.me:1995/bein2/kuwaitsport/tracks-v1a1/mono.m3u8' for reading
frame= 3311 fps= 25 q=-1.0 size=N/A time=00:02:12.42 bitrate=N/A speed=   1x elapsed=0:02:11.98    [hls @ 00000298a1615140] Opening 'live\channel_8\stream32.ts' for writing
[hls @ 00000298a1615140] Opening 'live\channel_8\stream.m3u8.tmp' for writing
frame= 3325 fps= 25 q=-1.0 size=N/A time=00:02:12.97 bitrate=N/A speed=   1x elapsed=0:02:12.50    frame= 3338 fps= 25 q=-1.0 size=N/A time=00:02:13.49 bitrate=N/A speed=   1x elapsed=0:02:13.01    frame= 3351 fps= 25 q=-1.0 size=N/A time=00:02:14.01 bitrate=N/A speed=   1x elapsed=0:02:13.53    frame= 3364 fps= 25 q=-1.0 size=N/A time=00:02:14.53 bitrate=N/A speed=   1x elapsed=0:02:14.04    frame= 3377 fps= 25 q=-1.0 size=N/A time=00:02:15.05 bitrate=N/A speed=   1x elapsed=0:02:14.56    frame= 3389 fps= 25 q=-1.0 size=N/A time=00:02:15.53 bitrate=N/A speed=   1x elapsed=0:02:15.08    frame= 3403 fps= 25 q=-1.0 size=N/A time=00:02:16.05 bitrate=N/A speed=   1x elapsed=0:02:15.59    frame= 3415 fps= 25 q=-1.0 size=N/A time=00:02:16.57 bitrate=N/A speed=   1x elapsed=0:02:16.11    [hls @ 00000298a1615140] Opening 'live\channel_8\stream33.ts' for writing
[hls @ 00000298a1615140] Opening 'live\channel_8\stream.m3u8.tmp' for writing
frame= 3428 fps= 25 q=-1.0 size=N/A time=00:02:17.09 bitrate=N/A speed=   1x elapsed=0:02:16.62    frame= 3441 fps= 25 q=-1.0 size=N/A time=00:02:17.61 bitrate=N/A speed=   1x elapsed=0:02:17.14    frame= 3454 fps= 25 q=-1.0 size=N/A time=00:02:18.13 bitrate=N/A speed=   1x elapsed=0:02:17.65    [https @ 00000298a1676d40] Opening 'https://tv.vodu.me:1995/bein2/kuwaitsport/tracks-v1a1/2025/08/04/19/58/39-05760.ts' for reading
frame= 3467 fps= 25 q=-1.0 size=N/A time=00:02:18.65 bitrate=N/A speed=   1x elapsed=0:02:18.17    frame= 3479 fps= 25 q=-1.0 size=N/A time=00:02:19.13 bitrate=N/A speed=   1x elapsed=0:02:18.68    frame= 3492 fps= 25 q=-1.0 size=N/A time=00:02:19.65 bitrate=N/A speed=   1x elapsed=0:02:19.20    frame= 3506 fps= 25 q=-1.0 size=N/A time=00:02:20.21 bitrate=N/A speed=   1x elapsed=0:02:19.72    frame= 3518 fps= 25 q=-1.0 size=N/A time=00:02:20.69 bitrate=N/A speed=   1x elapsed=0:02:20.23    [hls @ 00000298a1615140] Opening 'live\channel_8\stream34.ts' for writing
[hls @ 00000298a1615140] Opening 'live\channel_8\stream.m3u8.tmp' for writing
frame= 3532 fps= 25 q=-1.0 size=N/A time=00:02:21.21 bitrate=N/A speed=   1x elapsed=0:02:20.75    frame= 3543 fps= 25 q=-1.0 size=N/A time=00:02:21.69 bitrate=N/A speed=   1x elapsed=0:02:21.26    frame= 3557 fps= 25 q=-1.0 size=N/A time=00:02:22.25 bitrate=N/A speed=   1x elapsed=0:02:21.78    frame= 3570 fps= 25 q=-1.0 size=N/A time=00:02:22.77 bitrate=N/A speed=   1x elapsed=0:02:22.29    frame= 3583 fps= 25 q=-1.0 size=N/A time=00:02:23.29 bitrate=N/A speed=   1x elapsed=0:02:22.81    frame= 3596 fps= 25 q=-1.0 size=N/A time=00:02:23.81 bitrate=N/A speed=   1x elapsed=0:02:23.33    [https @ 00000298a1d0c580] Opening 'https://tv.vodu.me:1995/bein2/kuwaitsport/tracks-v1a1/mono.m3u8' for reading
[https @ 000002989f8da200] Opening 'https://tv.vodu.me:1995/bein2/kuwaitsport/tracks-v1a1/2025/08/04/19/58/45-05760.ts' for reading
frame= 3609 fps= 25 q=-1.0 size=N/A time=00:02:24.33 bitrate=N/A speed=   1x elapsed=0:02:23.84    frame= 3621 fps= 25 q=-1.0 size=N/A time=00:02:24.81 bitrate=N/A speed=   1x elapsed=0:02:24.36    frame= 3634 fps= 25 q=-1.0 size=N/A time=00:02:25.33 bitrate=N/A speed=   1x elapsed=0:02:24.87    [hls @ 00000298a1615140] Opening 'live\channel_8\stream35.ts' for writing
[hls @ 00000298a1615140] Opening 'live\channel_8\stream.m3u8.tmp' for writing
frame= 3647 fps= 25 q=-1.0 size=N/A time=00:02:25.85 bitrate=N/A speed=   1x elapsed=0:02:25.39    